v -0.500000 -0.500000 -0.500000
v 0.500000 0.500000 -0.500000
v 0.500000 -0.500000 -0.500000
v -0.500000 0.500000 -0.500000
v -0.500000 0.500000 0.500000
v -0.500000 -0.500000 0.500000
v 0.500000 0.500000 0.500000
v 0.500000 -0.500000 0.500000

vn -0.500000 -0.500000 -0.500000
vn 0.500000 0.500000 -0.500000
vn 0.500000 -0.500000 -0.500000
vn -0.500000 0.500000 -0.500000
vn -0.500000 0.500000 0.500000
vn -0.500000 -0.500000 0.500000
vn 0.500000 0.500000 0.500000
vn 0.500000 -0.500000 0.500000


vt 0.000000 0.000000
vt 1.000000 1.000000
vt 1.000000 0.000000
vt 0.000000 1.000000
f 1/1/1 2/2/2 3/3/3
f 1/1/1 4/4/4 2/2/2
f 1/3/1 5/4/5 4/2/4
f 1/3/1 6/1/6 5/4/5
f 4/1/4 7/2/7 2/3/2
f 4/1/4 5/4/5 7/2/7
f 3/1/3 2/3/2 7/2/7
f 3/1/3 7/2/7 8/4/8
f 1/3/1 3/2/3 8/4/8
f 1/3/1 8/4/8 6/1/6
f 6/4/6 8/1/8 7/3/7
f 6/4/6 7/3/7 5/2/5
